<svg xmlns="http://www.w3.org/2000/svg" width="544" height="488" viewBox="0 0 544 488">
<g>
<path d="M 0.00 0.00 L 544.00 0.00 L 544.00 488.00 L 0.00 488.00 ZM 267.33 320.25 C268.98,322.31 270.60,323.99 270.92,323.98 C272.28,323.95 273.99,322.15 278.12,316.38 C280.53,313.02 292.85,295.79 305.50,278.09 C318.15,260.39 331.50,241.76 335.17,236.70 C347.80,219.27 351.10,214.48 355.79,206.82 C358.38,202.59 367.54,188.64 376.14,175.82 C389.63,155.72 403.00,134.59 403.00,133.37 C403.00,133.17 393.14,133.00 381.09,133.00 L 359.19 133.00 L 351.42 145.75 C337.30,168.92 293.54,233.57 287.76,239.82 C286.39,241.29 282.19,246.72 278.42,251.87 L 271.56 261.24 L 268.72 257.87 C267.16,256.02 263.58,251.12 260.77,247.00 C257.96,242.88 252.96,235.91 249.67,231.51 C242.65,222.14 235.75,212.12 216.58,183.46 C202.78,162.83 198.34,156.01 188.72,140.63 L 183.95 133.00 L 162.47 133.00 C146.79,133.00 141.00,133.31 141.00,134.17 C141.00,136.49 168.11,178.71 183.84,200.88 C186.33,204.39 190.42,210.55 192.93,214.56 C198.51,223.47 207.75,236.93 212.46,243.00 C214.38,245.48 215.96,247.98 215.98,248.57 C215.99,249.17 218.36,252.87 221.25,256.81 C224.14,260.75 229.43,268.05 233.00,273.03 C236.57,278.02 241.76,285.12 244.53,288.80 C247.30,292.49 251.79,298.65 254.51,302.50 C257.23,306.35 260.03,310.10 260.74,310.83 C261.44,311.56 262.53,313.13 263.17,314.33 C263.80,315.52 265.68,318.19 267.33,320.25 ZM 263.30 385.91 C267.04,390.91 270.48,395.00 270.95,395.00 C272.58,395.00 274.21,392.88 309.29,345.29 C315.45,336.92 323.88,325.32 328.00,319.51 C332.12,313.70 336.88,307.05 338.57,304.72 C352.80,285.13 403.00,210.46 403.00,208.88 C403.00,208.40 395.80,208.00 386.99,208.00 L 370.99 208.00 L 366.57 214.90 C364.14,218.69 361.69,222.07 361.13,222.42 C360.58,222.76 358.70,225.53 356.95,228.58 C355.21,231.63 351.81,236.07 349.39,238.45 C346.98,240.83 345.00,243.64 345.00,244.69 C345.00,245.74 344.52,247.08 343.93,247.67 C343.34,248.26 342.77,249.36 342.66,250.12 C342.55,250.88 340.25,254.65 337.55,258.50 C334.86,262.35 330.37,268.79 327.58,272.80 C322.01,280.80 312.92,293.14 307.78,299.67 C305.98,301.96 302.25,307.02 299.50,310.91 C296.75,314.80 289.34,325.02 283.04,333.64 L 271.59 349.29 L 268.15 345.13 C264.61,340.84 258.57,332.63 250.03,320.50 C235.73,300.20 219.70,277.92 216.21,273.50 C214.04,270.75 208.37,262.65 203.62,255.50 C198.87,248.35 193.61,240.48 191.92,238.00 C186.18,229.57 178.42,217.51 175.66,212.75 L 172.92 208.00 L 156.35 208.00 C142.15,208.00 139.87,208.21 140.35,209.48 C140.88,210.86 169.54,254.08 176.50,264.00 C178.24,266.48 182.73,273.00 186.48,278.50 C190.23,284.00 194.74,290.52 196.49,293.00 C198.25,295.48 199.93,298.20 200.24,299.06 C200.74,300.48 207.97,310.85 218.40,325.10 C220.66,328.18 225.81,335.27 229.85,340.85 C233.90,346.43 237.61,351.00 238.10,351.00 C238.60,351.00 238.89,351.36 238.75,351.80 C238.39,352.95 254.76,375.00 255.98,375.00 C256.54,375.00 256.89,375.41 256.75,375.91 C256.61,376.41 259.56,380.91 263.30,385.91 ZM 241.27 204.75 C242.41,205.99 243.68,207.00 244.08,207.00 C244.48,207.00 250.78,200.02 258.06,191.50 C265.35,182.98 271.40,176.00 271.50,176.00 C271.60,176.00 276.89,181.96 283.24,189.25 C296.85,204.86 299.19,207.14 300.55,206.20 C302.29,205.00 317.00,184.24 317.00,182.99 C317.00,181.82 306.15,168.70 294.81,156.14 C291.64,152.64 285.56,145.33 281.28,139.89 C277.00,134.46 273.00,130.01 272.40,130.01 C271.24,130.00 266.38,135.39 253.47,151.00 C249.15,156.23 241.20,165.21 235.81,170.96 C230.41,176.71 226.00,182.16 226.00,183.08 C226.00,184.64 236.66,199.77 241.27,204.75 Z" fill="rgb(1,1,1)"/>
<path d="M 267.33 320.25 C265.68,318.19 263.80,315.52 263.17,314.33 C262.53,313.13 261.44,311.56 260.74,310.83 C260.03,310.10 257.23,306.35 254.51,302.50 C251.79,298.65 247.30,292.49 244.53,288.80 C241.76,285.12 236.57,278.02 233.00,273.03 C229.43,268.05 224.14,260.75 221.25,256.81 C218.36,252.87 215.99,249.17 215.98,248.57 C215.96,247.98 214.38,245.48 212.46,243.00 C211.75,242.09 210.94,241.01 210.06,239.80 C211.57,241.62 214.62,245.67 217.00,249.01 C220.69,254.19 222.56,255.82 227.39,258.02 L 233.29 260.70 L 243.39 258.34 C263.79,253.57 264.23,252.50 252.29,236.41 C251.03,234.70 250.00,232.89 250.00,232.38 C250.00,232.21 249.85,231.86 249.59,231.41 L 249.67 231.51 C252.96,235.91 257.96,242.88 260.77,247.00 C263.58,251.12 267.16,256.02 268.72,257.87 L 271.56 261.24 L 278.42 251.87 C282.19,246.72 286.39,241.29 287.76,239.82 C290.78,236.55 304.19,217.32 318.31,196.39 C311.01,207.28 304.29,217.17 300.16,223.00 C282.57,247.84 281.68,249.26 282.69,250.91 C284.20,253.33 290.03,255.88 294.50,256.07 C296.70,256.16 299.85,256.58 301.50,257.00 C306.45,258.26 310.22,258.03 315.70,256.14 C322.07,253.94 323.32,252.44 344.50,221.60 C348.90,215.20 355.37,206.03 358.88,201.23 C360.65,198.81 362.90,195.61 365.45,191.91 C360.96,198.72 357.29,204.38 355.79,206.82 C351.10,214.48 347.80,219.27 335.17,236.70 C331.50,241.76 318.15,260.39 305.50,278.09 C292.85,295.79 280.53,313.02 278.12,316.38 C273.99,322.15 272.28,323.95 270.92,323.98 C270.60,323.99 268.98,322.31 267.33,320.25 ZM 263.30 385.91 C259.56,380.91 256.61,376.41 256.75,375.91 C256.89,375.41 256.54,375.00 255.98,375.00 C254.76,375.00 238.39,352.95 238.75,351.80 C238.89,351.36 238.60,351.00 238.10,351.00 C237.61,351.00 233.90,346.43 229.85,340.85 C225.81,335.27 220.66,328.18 218.40,325.10 C207.97,310.85 200.74,300.48 200.24,299.06 C199.93,298.20 198.25,295.48 196.49,293.00 C194.74,290.52 190.23,284.00 186.48,278.50 C182.73,273.00 178.24,266.48 176.50,264.00 C172.95,258.94 163.74,245.20 155.51,232.78 C163.77,245.24 173.01,259.03 176.55,264.06 C178.31,266.58 183.26,273.78 187.55,280.06 C191.84,286.35 197.67,294.65 200.51,298.50 C203.35,302.35 208.36,309.33 211.64,314.00 C214.92,318.67 219.01,323.40 220.72,324.50 C223.59,326.34 226.57,330.53 226.19,332.20 C225.96,333.21 232.96,330.60 236.90,328.21 C238.75,327.08 240.78,326.36 241.42,326.61 C243.20,327.29 247.00,323.20 247.00,320.60 C247.00,319.32 245.96,316.75 244.69,314.89 C240.72,309.05 234.85,300.69 231.36,295.87 C229.51,293.32 228.00,290.93 228.00,290.57 C228.00,290.10 225.87,286.79 223.23,282.97 C230.07,292.38 240.44,306.89 250.03,320.50 C258.57,332.63 264.61,340.84 268.15,345.13 L 271.59 349.29 L 283.04 333.64 C289.34,325.02 296.75,314.80 299.50,310.91 C302.25,307.02 305.98,301.96 307.78,299.67 C311.96,294.37 318.73,285.24 324.11,277.72 C316.48,288.65 306.26,303.03 302.56,308.00 C296.40,316.27 292.30,324.11 292.79,326.66 C293.32,329.46 297.67,332.06 303.50,333.06 C305.70,333.44 309.35,333.81 311.61,333.87 C315.70,334.00 315.72,333.98 324.21,322.75 C328.88,316.56 334.88,308.35 337.54,304.50 C340.19,300.65 344.38,295.10 346.83,292.17 C348.66,289.98 350.70,287.32 353.98,282.68 C347.55,292.04 342.01,299.99 338.57,304.72 C336.88,307.05 332.12,313.70 328.00,319.51 C323.88,325.32 315.45,336.92 309.29,345.29 C274.21,392.88 272.58,395.00 270.95,395.00 C270.48,395.00 267.04,390.91 263.30,385.91 ZM 241.27 204.75 C236.66,199.77 226.00,184.64 226.00,183.08 C226.00,182.16 230.41,176.71 235.81,170.96 C239.49,167.03 244.35,161.61 248.45,156.90 C244.66,161.41 240.26,166.68 235.12,172.82 C229.65,179.37 227.71,184.74 229.88,187.36 C231.40,189.19 254.34,188.39 258.24,186.37 C259.81,185.56 263.42,182.62 266.27,179.83 L 271.46 174.75 L 278.48 182.33 C282.34,186.50 287.46,191.51 289.84,193.46 C295.42,198.01 299.49,198.19 303.43,194.07 C304.97,192.46 307.50,190.62 309.05,189.98 C310.74,189.28 312.30,187.59 312.94,185.76 C313.37,184.52 313.79,183.71 313.91,182.86 C314.27,180.30 311.85,177.35 298.43,161.02 C296.92,159.18 295.28,157.19 293.49,155.00 C291.07,152.05 288.21,148.52 285.58,145.25 C289.01,149.44 292.61,153.71 294.81,156.14 C306.15,168.70 317.00,181.82 317.00,182.99 C317.00,184.24 302.29,205.00 300.55,206.20 C299.19,207.14 296.85,204.86 283.24,189.25 C276.89,181.96 271.60,176.00 271.50,176.00 C271.40,176.00 265.35,182.98 258.06,191.50 C250.78,200.02 244.48,207.00 244.08,207.00 C243.68,207.00 242.41,205.99 241.27,204.75 ZM 335.53 261.39 C336.27,260.34 336.96,259.36 337.55,258.50 C340.25,254.65 342.55,250.88 342.66,250.12 C342.77,249.36 343.34,248.26 343.93,247.67 C344.52,247.08 345.00,245.74 345.00,244.69 C345.00,243.64 346.98,240.83 349.39,238.45 C351.47,236.40 354.28,232.82 356.14,229.93 C355.92,230.29 355.71,230.64 355.50,231.00 C349.17,241.84 343.95,249.95 339.05,256.55 C338.12,257.80 336.89,259.50 335.53,261.39 ZM 287.15 331.05 C286.93,331.71 287.29,332.07 287.95,331.85 C289.24,331.42 289.47,330.05 288.27,329.92 C287.88,329.88 287.37,330.39 287.15,331.05 ZM 373.46 254.00 C376.84,248.96 380.68,243.21 385.07,236.63 C394.93,221.85 403.00,209.36 403.00,208.88 C403.00,209.72 388.86,231.15 373.46,254.00 ZM 245.51 225.86 C241.51,220.51 233.51,208.78 216.66,183.58 C232.06,206.61 239.52,217.57 245.51,225.86 ZM 356.93 228.62 L 356.95 228.58 C358.66,225.59 360.51,222.87 361.10,222.44 C360.08,223.73 358.48,226.11 356.93,228.62 ZM 364.25 218.38 C364.98,217.32 365.77,216.13 366.57,214.90 L 370.30 209.07 L 367.35 213.75 C366.38,215.29 365.27,216.94 364.25,218.38 ZM 259.26 144.04 C262.53,140.14 265.07,137.18 267.01,135.01 C265.19,137.08 262.70,139.98 259.26,144.04 ZM 210.04 264.94 C208.01,262.03 205.74,258.70 203.62,255.50 C198.87,248.35 193.61,240.48 191.92,238.00 C193.61,240.48 198.87,248.35 203.62,255.50 C205.71,258.64 207.97,261.97 210.04,264.94 ZM 194.29 216.70 C193.82,215.97 193.36,215.25 192.93,214.56 C190.42,210.55 186.33,204.39 183.84,200.88 C186.33,204.39 190.42,210.54 192.93,214.55 C193.39,215.27 193.84,215.99 194.29,216.70 Z" fill="rgb(148,105,34)"/>
<path d="M 292.18 172.59 C293.57,173.34 299.65,173.56 305.73,173.10 C307.31,172.97 305.46,169.81 298.72,161.37 C311.89,177.40 314.27,180.32 313.91,182.86 C313.79,183.71 313.37,184.52 312.94,185.76 C312.30,187.59 310.74,189.28 309.05,189.98 C307.50,190.62 304.97,192.46 303.43,194.07 C299.49,198.19 295.42,198.01 289.84,193.46 C287.46,191.51 282.34,186.50 278.48,182.33 L 271.46 174.75 L 266.27 179.83 C263.42,182.62 259.81,185.56 258.24,186.37 C254.34,188.39 231.40,189.19 229.88,187.36 C227.71,184.74 229.65,179.37 235.12,172.82 C240.26,166.68 244.66,161.41 248.45,156.90 C250.36,154.70 252.10,152.66 253.47,151.00 C255.62,148.41 257.54,146.09 259.26,144.04 C262.22,140.54 264.48,137.90 266.22,135.92 C264.95,137.45 264.00,138.83 264.00,139.39 C264.00,139.76 264.91,139.59 266.01,138.99 C268.98,137.40 269.59,140.05 267.77,146.59 C266.28,151.94 266.53,153.07 268.73,150.87 C270.37,149.23 273.03,150.59 272.74,152.91 C272.46,155.24 278.67,163.65 281.36,164.57 C282.38,164.92 284.86,166.66 286.86,168.45 C288.86,170.23 291.26,172.10 292.18,172.59 ZM 343.28 216.48 C345.20,217.83 346.80,217.62 348.82,215.37 C347.29,217.57 345.80,219.71 344.50,221.60 C323.32,252.44 322.07,253.94 315.70,256.14 C310.22,258.03 306.45,258.26 301.50,257.00 C299.85,256.58 296.70,256.16 294.50,256.07 C290.03,255.88 284.20,253.33 282.69,250.91 C281.68,249.26 282.57,247.84 300.16,223.00 C304.29,217.17 311.01,207.28 318.31,196.39 C326.96,183.59 335.87,170.15 342.83,159.36 C337.67,167.40 331.29,177.21 325.48,186.00 C315.49,201.12 307.02,214.02 306.66,214.66 C305.23,217.15 310.11,214.66 312.09,211.88 C314.57,208.39 315.07,208.35 318.67,211.35 C321.05,213.33 323.07,213.81 331.37,214.38 C337.26,214.78 342.06,215.63 343.28,216.48 ZM 335.53 261.39 C336.12,260.58 336.68,259.80 337.20,259.07 C332.33,266.23 327.00,274.47 327.00,275.05 C327.00,276.80 328.86,276.02 329.50,274.00 C330.16,271.93 334.36,271.16 335.45,272.91 C336.86,275.21 345.15,278.19 348.39,277.59 C351.85,276.94 355.30,279.08 353.05,280.47 C352.47,280.83 352.00,281.65 352.00,282.29 C352.00,282.94 353.11,281.83 354.47,279.82 C355.83,277.82 357.34,276.03 357.83,275.84 C358.53,275.57 360.58,272.94 366.03,265.00 C361.87,271.13 357.77,277.15 353.98,282.68 C350.70,287.32 348.66,289.98 346.83,292.17 C344.38,295.10 340.19,300.65 337.54,304.50 C334.88,308.35 328.88,316.56 324.21,322.75 C315.72,333.98 315.70,334.00 311.61,333.87 C309.35,333.81 305.70,333.44 303.50,333.06 C297.67,332.06 293.32,329.46 292.79,326.66 C292.30,324.11 296.40,316.27 302.56,308.00 C306.26,303.03 316.48,288.65 324.11,277.72 C325.36,275.97 326.53,274.31 327.58,272.80 C329.75,269.68 332.95,265.09 335.53,261.39 ZM 210.04 264.94 C212.68,268.74 214.99,271.96 216.21,273.50 C217.36,274.95 219.87,278.35 223.23,282.97 C225.87,286.79 228.00,290.10 228.00,290.57 C228.00,290.93 229.51,293.32 231.36,295.87 C234.85,300.69 240.72,309.05 244.69,314.89 C245.96,316.75 247.00,319.32 247.00,320.60 C247.00,323.20 243.20,327.29 241.42,326.61 C240.78,326.36 238.75,327.08 236.90,328.21 C232.96,330.60 225.96,333.21 226.19,332.20 C226.57,330.53 223.59,326.34 220.72,324.50 C219.01,323.40 214.92,318.67 211.64,314.00 C208.36,309.33 203.35,302.35 200.51,298.50 C197.67,294.65 191.84,286.35 187.55,280.06 C183.26,273.78 178.31,266.58 176.55,264.06 C173.05,259.09 163.97,245.54 155.78,233.18 C164.07,245.69 173.31,259.46 176.86,264.50 C178.80,267.25 181.39,270.98 182.62,272.79 C183.85,274.59 185.88,277.14 187.14,278.44 L 189.41 280.80 L 190.47 278.65 C191.24,277.08 194.40,275.55 202.22,272.97 L 212.92 269.43 L 206.77 260.19 C207.89,261.83 209.00,263.44 210.04,264.94 ZM 194.29 216.70 L 194.23 216.61 C195.14,217.81 196.01,218.79 196.62,219.27 C197.85,220.24 199.78,222.53 200.91,224.36 C202.81,227.43 203.40,227.70 208.44,227.87 C211.44,227.97 216.96,227.41 220.71,226.63 C225.41,225.65 229.68,225.44 234.51,225.96 C242.66,226.83 244.60,226.66 244.24,225.10 C244.10,224.48 240.99,219.59 237.32,214.23 C237.03,213.80 236.72,213.35 236.40,212.89 C240.73,219.22 243.59,223.28 245.51,225.86 C246.93,227.82 248.26,229.62 249.59,231.41 C249.85,231.86 250.00,232.21 250.00,232.38 C250.00,232.89 251.03,234.70 252.29,236.41 C264.23,252.50 263.79,253.57 243.39,258.34 L 233.29 260.70 L 227.39 258.02 C222.56,255.82 220.69,254.19 217.00,249.01 C214.62,245.67 211.57,241.62 210.06,239.80 C205.51,233.61 199.00,224.07 194.29,216.70 ZM 287.15 331.05 C287.37,330.39 287.88,329.88 288.27,329.92 C289.47,330.05 289.24,331.42 287.95,331.85 C287.29,332.07 286.93,331.71 287.15,331.05 ZM 365.89 191.23 C365.74,191.46 365.59,191.68 365.45,191.91 C362.90,195.61 360.65,198.81 358.88,201.23 C357.14,203.61 354.67,207.07 352.08,210.73 C353.84,207.97 357.26,203.10 359.99,199.50 C361.44,197.59 363.48,194.73 365.89,191.23 ZM 356.93 228.62 C357.18,228.22 357.43,227.83 357.67,227.44 C357.42,227.87 357.16,228.32 356.91,228.77 C354.64,232.80 350.81,239.04 347.57,244.07 C350.04,240.19 352.66,235.87 355.50,231.00 C355.71,230.64 355.92,230.29 356.14,229.93 C356.43,229.47 356.69,229.03 356.93,228.62 ZM 165.95 174.56 C153.18,155.21 141.00,135.73 141.00,134.17 C141.00,135.66 153.46,155.57 165.95,174.56 ZM 277.58 135.35 C275.10,132.45 273.03,130.32 272.50,130.20 C272.00,130.08 270.36,131.46 268.66,133.21 C270.77,130.95 271.91,130.00 272.40,130.01 C272.82,130.01 274.90,132.19 277.58,135.35 ZM 189.26 208.87 C187.77,206.61 186.23,204.31 184.92,202.43 L 184.97 202.50 C186.22,204.22 187.84,206.63 189.26,208.87 ZM 194.77 150.25 C197.42,154.43 199.87,158.24 202.66,162.49 C200.58,159.34 198.96,156.85 198.00,155.34 C197.10,153.92 195.97,152.14 194.77,150.25 Z" fill="rgb(213,165,59)"/>
<path d="M 352.00 282.29 C352.00,281.65 352.47,280.83 353.05,280.47 C355.30,279.08 351.85,276.94 348.39,277.59 C345.15,278.19 336.86,275.21 335.45,272.91 C334.36,271.16 330.16,271.93 329.50,274.00 C328.86,276.02 327.00,276.80 327.00,275.05 C327.00,274.21 338.06,257.47 342.89,251.00 C345.74,247.19 353.30,235.18 356.91,228.77 C358.68,225.62 360.58,222.76 361.13,222.42 C361.69,222.07 364.14,218.69 366.57,214.90 L 370.99 208.00 L 386.99 208.00 C395.80,208.00 403.00,208.40 403.00,208.88 C403.00,209.36 394.94,221.85 385.09,236.63 C364.45,267.60 359.06,275.37 357.83,275.84 C357.34,276.03 355.83,277.82 354.47,279.82 C353.11,281.83 352.00,282.94 352.00,282.29 ZM 187.14 278.44 C185.88,277.14 183.85,274.59 182.62,272.79 C181.39,270.98 178.80,267.25 176.86,264.50 C169.88,254.59 140.91,210.92 140.35,209.48 C139.87,208.21 142.15,208.00 156.35,208.00 L 172.92 208.00 L 175.66 212.75 C178.43,217.53 186.24,229.65 191.93,238.00 C193.61,240.48 199.03,248.56 203.96,255.97 L 212.92 269.43 L 202.22 272.97 C194.40,275.55 191.24,277.08 190.47,278.65 L 189.41 280.80 L 187.14 278.44 ZM 200.91 224.36 C199.78,222.53 197.85,220.24 196.62,219.27 C195.38,218.29 193.07,215.25 191.49,212.50 C189.90,209.75 186.97,205.25 184.97,202.50 C171.62,184.11 141.00,136.51 141.00,134.17 C141.00,133.31 146.79,133.00 162.47,133.00 L 183.95 133.00 L 188.72 140.63 C191.35,144.83 195.52,151.45 198.00,155.34 C203.14,163.42 227.37,199.72 237.32,214.23 C240.99,219.59 244.10,224.48 244.24,225.10 C244.60,226.66 242.66,226.83 234.51,225.96 C229.68,225.44 225.41,225.65 220.71,226.63 C216.96,227.41 211.44,227.97 208.44,227.87 C203.40,227.70 202.81,227.43 200.91,224.36 ZM 343.28 216.48 C342.06,215.63 337.26,214.78 331.37,214.38 C323.07,213.81 321.05,213.33 318.67,211.35 C315.07,208.35 314.57,208.39 312.09,211.88 C310.11,214.66 305.23,217.15 306.66,214.66 C307.02,214.02 315.49,201.12 325.48,186.00 C335.47,170.88 347.14,152.76 351.42,145.75 L 359.19 133.00 L 381.09 133.00 C393.14,133.00 403.00,133.17 403.00,133.37 C403.00,135.40 369.26,187.27 359.99,199.50 C357.07,203.35 353.36,208.64 351.75,211.27 C348.13,217.13 346.04,218.42 343.28,216.48 ZM 292.18 172.59 C291.26,172.10 288.86,170.23 286.86,168.45 C284.86,166.66 282.38,164.92 281.36,164.57 C278.67,163.65 272.46,155.24 272.74,152.91 C273.03,150.59 270.37,149.23 268.73,150.87 C266.53,153.07 266.28,151.94 267.77,146.59 C269.59,140.05 268.98,137.40 266.01,138.99 C264.91,139.59 264.00,139.76 264.00,139.39 C264.00,137.83 271.32,129.92 272.50,130.20 C273.21,130.36 276.66,134.10 280.18,138.50 C283.70,142.90 290.38,151.15 295.04,156.83 C304.77,168.70 307.57,172.95 305.73,173.10 C299.65,173.56 293.57,173.34 292.18,172.59 Z" fill="rgb(247,219,122)"/>
</g>
</svg>